<svg width="120" height="120" viewBox="0 0 120 120" fill="none" xmlns="http://www.w3.org/2000/svg">
<g opacity="0.4" clip-path="url(#clip0_96_1411)">
<path d="M95 0H25C18.372 0.00793929 12.0178 2.64441 7.3311 7.3311C2.64441 12.0178 0.00793929 18.372 0 25L0 95C0.00793929 101.628 2.64441 107.982 7.3311 112.669C12.0178 117.356 18.372 119.992 25 120H95C101.628 119.992 107.982 117.356 112.669 112.669C117.356 107.982 119.992 101.628 120 95V25C119.992 18.372 117.356 12.0178 112.669 7.3311C107.982 2.64441 101.628 0.00793929 95 0ZM25 10H95C98.9782 10 102.794 11.5804 105.607 14.3934C108.42 17.2064 110 21.0218 110 25V95C109.991 97.2274 109.479 99.424 108.5 101.425L62.685 55.61C60.3634 53.2878 57.6072 51.4458 54.5736 50.189C51.54 48.9322 48.2886 48.2853 45.005 48.2853C41.7214 48.2853 38.47 48.9322 35.4364 50.189C32.4028 51.4458 29.6466 53.2878 27.325 55.61L10 72.93V25C10 21.0218 11.5804 17.2064 14.3934 14.3934C17.2064 11.5804 21.0218 10 25 10ZM25 110C21.0218 110 17.2064 108.42 14.3934 105.607C11.5804 102.794 10 98.9782 10 95V87.07L34.39 62.68C35.783 61.2861 37.437 60.1804 39.2575 59.4259C41.078 58.6715 43.0294 58.2832 45 58.2832C46.9706 58.2832 48.922 58.6715 50.7425 59.4259C52.563 60.1804 54.217 61.2861 55.61 62.68L101.425 108.5C99.424 109.479 97.2274 109.991 95 110H25Z" fill="#A0A0BF"/>
<path d="M80 52.5C83.4612 52.5 86.8446 51.4737 89.7225 49.5507C92.6003 47.6278 94.8434 44.8947 96.1679 41.697C97.4924 38.4993 97.839 34.9806 97.1637 31.5859C96.4885 28.1913 94.8218 25.0731 92.3744 22.6256C89.927 20.1782 86.8087 18.5115 83.4141 17.8363C80.0194 17.161 76.5007 17.5076 73.303 18.8321C70.1053 20.1566 67.3722 22.3997 65.4493 25.2775C63.5264 28.1554 62.5 31.5388 62.5 35C62.5 39.6413 64.3437 44.0925 67.6256 47.3744C70.9075 50.6563 75.3587 52.5 80 52.5ZM80 27.5C81.4834 27.5 82.9334 27.9399 84.1668 28.764C85.4001 29.5881 86.3614 30.7594 86.9291 32.1299C87.4967 33.5003 87.6453 35.0083 87.3559 36.4632C87.0665 37.918 86.3522 39.2544 85.3033 40.3033C84.2544 41.3522 82.918 42.0665 81.4632 42.3559C80.0083 42.6453 78.5003 42.4968 77.1299 41.9291C75.7594 41.3614 74.5881 40.4002 73.764 39.1668C72.9399 37.9334 72.5 36.4834 72.5 35C72.5 33.0109 73.2902 31.1032 74.6967 29.6967C76.1032 28.2902 78.0109 27.5 80 27.5Z" fill="#A0A0BF"/>
</g>
<defs>
<clipPath id="clip0_96_1411">
<rect width="120" height="120" fill="white"/>
</clipPath>
</defs>
</svg>
